<svg width="24" height="24" viewBox="0 0 24 24" fill="none" xmlns="http://www.w3.org/2000/svg" data-reactroot="">
<path fill="#184752" d="M12 14C12.5523 14 13 14.4477 13 15V20C13 20.5523 12.5523 21 12 21C11.4477 21 11 20.5523 11 20V15C11 14.4477 11.4477 14 12 14Z" clip-rule="evenodd" fill-rule="evenodd" undefined="0" transform="translate(2,2)"></path><path fill="#93d1e0" d="M12 14C12.5523 14 13 14.4477 13 15V20C13 20.5523 12.5523 21 12 21C11.4477 21 11 20.5523 11 20V15C11 14.4477 11.4477 14 12 14Z" clip-rule="evenodd" fill-rule="evenodd" undefined="1"></path>
<path fill="#184752" d="M11.2531 14.3351C11.6203 13.9226 12.2524 13.8859 12.6649 14.2531L19.4049 20.2531C19.8174 20.6203 19.8542 21.2524 19.4869 21.6649C19.1197 22.0774 18.4876 22.1142 18.0751 21.7469L11.3351 15.7469C10.9226 15.3797 10.8859 14.7476 11.2531 14.3351Z" clip-rule="evenodd" fill-rule="evenodd" undefined="0" transform="translate(2,2)"></path><path fill="#93d1e0" d="M11.2531 14.3351C11.6203 13.9226 12.2524 13.8859 12.6649 14.2531L19.4049 20.2531C19.8174 20.6203 19.8542 21.2524 19.4869 21.6649C19.1197 22.0774 18.4876 22.1142 18.0751 21.7469L11.3351 15.7469C10.9226 15.3797 10.8859 14.7476 11.2531 14.3351Z" clip-rule="evenodd" fill-rule="evenodd" undefined="1"></path>
<path fill="#184752" d="M12.7469 14.3351C13.1141 14.7476 13.0774 15.3797 12.6649 15.7469L5.9249 21.7469C5.51239 22.1142 4.88029 22.0774 4.51307 21.6649C4.14585 21.2524 4.18256 20.6203 4.59508 20.2531L11.3351 14.2531C11.7476 13.8859 12.3797 13.9226 12.7469 14.3351Z" clip-rule="evenodd" fill-rule="evenodd" undefined="0" transform="translate(2,2)"></path><path fill="#93d1e0" d="M12.7469 14.3351C13.1141 14.7476 13.0774 15.3797 12.6649 15.7469L5.9249 21.7469C5.51239 22.1142 4.88029 22.0774 4.51307 21.6649C4.14585 21.2524 4.18256 20.6203 4.59508 20.2531L11.3351 14.2531C11.7476 13.8859 12.3797 13.9226 12.7469 14.3351Z" clip-rule="evenodd" fill-rule="evenodd" undefined="1"></path>
<path fill="#184752" d="M22 2H2V16H22V2Z" undefined="0" transform="translate(2,2)"></path><path fill="#93d1e0" d="M22 2H2V16H22V2Z" undefined="1"></path>
<path stroke-linejoin="round" stroke-linecap="round" stroke-width="1" stroke="#184752" d="M6 12L10 9L12 12L18 6"></path>
<path stroke-linejoin="round" stroke-linecap="round" stroke-width="1" stroke="#184752" d="M14 6H18V10"></path>
</svg>
